<svg width="23" height="20" viewBox="0 0 23 20" fill="none" xmlns="http://www.w3.org/2000/svg">
<path d="M8.625 2.14286C8.625 0.959821 9.59082 0 10.7812 0H12.2188C13.4092 0 14.375 0.959821 14.375 2.14286V17.8571C14.375 19.0402 13.4092 20 12.2188 20H10.7812C9.59082 20 8.625 19.0402 8.625 17.8571V2.14286ZM0 10.7143C0 9.53125 0.96582 8.57143 2.15625 8.57143H3.59375C4.78418 8.57143 5.75 9.53125 5.75 10.7143V17.8571C5.75 19.0402 4.78418 20 3.59375 20H2.15625C0.96582 20 0 19.0402 0 17.8571V10.7143ZM19.4062 2.85714H20.8438C22.0342 2.85714 23 3.81696 23 5V17.8571C23 19.0402 22.0342 20 20.8438 20H19.4062C18.2158 20 17.25 19.0402 17.25 17.8571V5C17.25 3.81696 18.2158 2.85714 19.4062 2.85714Z" fill="#566074"/>
</svg>
